<svg width="21" height="20" viewBox="0 0 21 20" fill="none" xmlns="http://www.w3.org/2000/svg">
<path d="M15.5 4C14.9477 4 14.5 4.44772 14.5 5C14.5 5.55228 14.9477 6 15.5 6C16.0523 6 16.5 5.55228 16.5 5C16.5 4.44772 16.0523 4 15.5 4Z" fill="black"/>
<path fill-rule="evenodd" clip-rule="evenodd" d="M10.5 15C13.2614 15 15.5 12.7614 15.5 10C15.5 7.23857 13.2614 5 10.5 5C7.73857 5 5.5 7.23857 5.5 10C5.5 12.7614 7.73857 15 10.5 15ZM10.5 13.3333C12.3409 13.3333 13.8333 11.8409 13.8333 10C13.8333 8.15905 12.3409 6.66667 10.5 6.66667C8.65905 6.66667 7.16667 8.15905 7.16667 10C7.16667 11.8409 8.65905 13.3333 10.5 13.3333Z" fill="black"/>
<path fill-rule="evenodd" clip-rule="evenodd" d="M2.03506 3.68041C1.5 4.73052 1.5 6.1052 1.5 8.85455V11.1455C1.5 13.8948 1.5 15.2695 2.03506 16.3196C2.50571 17.2433 3.2567 17.9943 4.18041 18.4649C5.23052 19 6.6052 19 9.35455 19H11.6455C14.3948 19 15.7695 19 16.8196 18.4649C17.7433 17.9943 18.4943 17.2433 18.9649 16.3196C19.5 15.2695 19.5 13.8948 19.5 11.1455V8.85455C19.5 6.1052 19.5 4.73052 18.9649 3.68041C18.4943 2.7567 17.7433 2.00571 16.8196 1.53506C15.7695 1 14.3948 1 11.6455 1H9.35455C6.6052 1 5.23052 1 4.18041 1.53506C3.2567 2.00571 2.50571 2.7567 2.03506 3.68041ZM11.6455 2.63636H9.35455C7.95287 2.63636 7.00002 2.63764 6.26352 2.69781C5.54611 2.75642 5.17923 2.86266 4.92331 2.99307C4.3075 3.30684 3.80684 3.8075 3.49307 4.42331C3.36266 4.67923 3.25642 5.04611 3.19781 5.76352C3.13764 6.50002 3.13636 7.45287 3.13636 8.85455V11.1455C3.13636 12.5472 3.13764 13.4999 3.19781 14.2365C3.25642 14.9539 3.36266 15.3208 3.49307 15.5767C3.80684 16.1925 4.3075 16.6931 4.92331 17.0069C5.17923 17.1373 5.54611 17.2436 6.26352 17.3022C7.00002 17.3623 7.95287 17.3636 9.35455 17.3636H11.6455C13.0472 17.3636 13.9999 17.3623 14.7365 17.3022C15.4539 17.2436 15.8208 17.1373 16.0767 17.0069C16.6925 16.6931 17.1931 16.1925 17.5069 15.5767C17.6373 15.3208 17.7436 14.9539 17.8022 14.2365C17.8623 13.4999 17.8636 12.5472 17.8636 11.1455V8.85455C17.8636 7.45287 17.8623 6.50002 17.8022 5.76352C17.7436 5.04611 17.6373 4.67923 17.5069 4.42331C17.1931 3.8075 16.6925 3.30684 16.0767 2.99307C15.8208 2.86266 15.4539 2.75642 14.7365 2.69781C13.9999 2.63764 13.0472 2.63636 11.6455 2.63636Z" fill="black"/>
</svg>
