<svg width="21" height="20" viewBox="0 0 21 20" fill="none" xmlns="http://www.w3.org/2000/svg">
<path fill-rule="evenodd" clip-rule="evenodd" d="M20.5 20H16.5V13.001C16.5 11.081 15.653 10.0098 14.134 10.0098C12.481 10.0098 11.5 11.126 11.5 13.001V20H7.5V7H11.5V8.46191C11.5 8.46191 12.755 6.25977 15.583 6.25977C18.412 6.25977 20.5 7.98611 20.5 11.5581V20ZM2.942 4.9209C1.593 4.9209 0.5 3.81896 0.5 2.45996C0.5 1.10196 1.593 0 2.942 0C4.29 0 5.383 1.10196 5.383 2.45996C5.384 3.81896 4.29 4.9209 2.942 4.9209ZM0.5 20H5.5V7H0.5V20Z" fill="black"/>
</svg>
