<svg width="407" height="52" viewBox="0 0 407 52" fill="none" xmlns="http://www.w3.org/2000/svg">
<path d="M67.2423 23.7996C66.7052 22.7653 65.9593 21.9838 65.0045 21.4569C64.0497 20.93 62.9457 20.6657 61.6925 20.6657C60.32 20.6657 59.0966 20.9745 58.0225 21.5909C56.9483 22.2079 56.108 23.0833 55.5015 24.2174C54.8944 25.3516 54.5912 26.6649 54.5912 28.1572C54.5912 29.6495 54.8944 30.9677 55.5015 32.1122C56.108 33.2566 56.9483 34.1368 58.0225 34.7533C59.0966 35.3703 60.32 35.6786 61.6925 35.6786C63.5424 35.6786 65.0441 35.1614 66.198 34.1265C67.3513 33.0922 68.0577 31.6894 68.3165 29.9182H60.5289V27.2021H71.9566V29.8585C71.7375 31.4702 71.1662 32.9527 70.2412 34.3056C69.3163 35.659 68.1125 36.7384 66.6309 37.5443C65.1488 38.3501 63.5028 38.7528 61.6931 38.7528C59.7433 38.7528 57.9634 38.3002 56.3521 37.395C54.7409 36.4899 53.4628 35.2309 52.5183 33.6191C51.5732 32.0074 51.1013 30.1868 51.1013 28.1572C51.1013 26.1276 51.5738 24.307 52.5183 22.6953C53.4628 21.0835 54.7458 19.8251 56.3673 18.9194C57.9883 18.0142 59.7639 17.5611 61.6936 17.5611C63.9016 17.5611 65.866 18.1037 67.5862 19.188C69.3065 20.2728 70.5548 21.8096 71.3306 23.799L67.2423 23.7996Z" fill="black"/>
<path d="M84.5779 38.5737L79.8039 30.2763H77.208V38.5737H73.8066V17.8302H80.9676C82.5587 17.8302 83.9063 18.1092 85.0108 18.6659C86.1148 19.2233 86.94 19.9694 87.4874 20.9044C88.0342 21.84 88.3076 22.8846 88.3076 24.0384C88.3076 25.3918 87.9149 26.6198 87.1293 27.7241C86.3432 28.8285 85.1351 29.5795 83.5043 29.9773L88.6364 38.5732L84.5779 38.5737ZM77.208 27.5603H80.9676C82.2403 27.5603 83.2005 27.2423 83.8472 26.6052C84.4933 25.9686 84.8172 25.1128 84.8172 24.0384C84.8172 22.9639 84.4987 22.1233 83.8624 21.516C83.2255 20.9093 82.2609 20.606 80.9681 20.606H77.2086L77.208 27.5603Z" fill="black"/>
<path d="M103.673 34.3355H94.9907L93.4988 38.5737H89.9482L97.3777 17.8004H101.316L108.746 38.5737H105.165L103.673 34.3355ZM102.719 31.5597L99.347 21.9192L95.9455 31.5597H102.719Z" fill="black"/>
<path d="M128.349 17.8302L120.562 38.5737H116.623L108.805 17.8302H112.446L118.592 35.0816L124.769 17.8302H128.349Z" fill="black"/>
<path d="M133.093 17.8302V38.5737H129.691V17.8302H133.093Z" fill="black"/>
<path d="M149.473 17.8302V20.606H143.953V38.5737H140.552V20.606H135.002V17.8302H149.473Z" fill="black"/>
<path d="M163.914 34.3355H155.232L153.74 38.5737H150.189L157.619 17.8004H161.557L168.987 38.5737H165.406L163.914 34.3355ZM162.96 31.5597L159.588 21.9192L156.186 31.5597H162.96Z" fill="black"/>
<path d="M183.294 19.0985C184.954 19.9445 186.237 21.1579 187.143 22.7397C188.048 24.3216 188.5 26.1672 188.5 28.2766C188.5 30.3859 188.048 32.2163 187.143 33.7684C186.237 35.3204 184.954 36.5094 183.294 37.3348C181.632 38.1607 179.698 38.5737 177.49 38.5737H170.717V17.8302H177.49C179.698 17.8302 181.632 18.2524 183.294 19.0985ZM183.07 33.8281C184.362 32.5148 185.009 30.6643 185.009 28.2766C185.009 25.8888 184.362 23.989 183.07 22.6356C181.776 21.2827 179.917 20.606 177.49 20.606H174.118V35.798H177.49C179.917 35.798 181.776 35.1413 183.07 33.8281Z" fill="black"/>
<path d="M6.64979 19.71C6.64979 20.5078 7.29917 21.1573 8.09664 21.1573C8.89466 21.1573 9.5435 20.5078 9.5435 19.7095C9.5435 19.3231 9.39322 18.9601 9.1198 18.6866C8.84638 18.4131 8.48291 18.2627 8.0961 18.2627C7.29863 18.2627 6.64979 18.9118 6.64979 19.71Z" fill="url(#paint0_linear_32_486)"/>
<path d="M11.4081 29.8628C11.4081 30.2497 11.5589 30.6133 11.8318 30.8868C12.1052 31.1603 12.4681 31.3106 12.8549 31.3106C13.6524 31.3106 14.3018 30.6616 14.3018 29.8633C14.3018 29.0651 13.6529 28.416 12.8549 28.4155C12.0574 28.4155 11.4086 29.0651 11.4081 29.8628Z" fill="url(#paint1_linear_32_486)"/>
<path d="M43.541 29.9581L37.1308 36.3702C37.4698 36.9683 37.6532 37.6455 37.6527 38.351C37.6527 39.4282 37.2338 40.4413 36.4722 41.2032C35.7105 41.9651 34.6982 42.3846 33.6219 42.3846C31.3982 42.3846 29.59 40.5754 29.59 38.3515C29.59 36.1277 31.3987 34.319 33.6213 34.319C34.1747 34.319 34.7101 34.4313 35.2038 34.6424L44.4442 25.3986C44.9482 24.8934 44.9482 24.0761 44.4437 23.5714C43.9397 23.0673 43.1232 23.0667 42.6182 23.5698L36.2834 29.9065C36.0311 30.1589 35.7002 30.2853 35.3693 30.2853C35.0383 30.2853 34.708 30.1589 34.4557 29.9065C33.9512 29.4013 33.9512 28.583 34.4557 28.0783L44.4144 18.116C44.9195 17.6113 44.9195 16.793 44.4144 16.2883C43.9099 15.7831 43.0912 15.7831 42.5867 16.2883L32.4305 26.4476C32.7029 26.9967 32.8504 27.604 32.8499 28.2346C32.8499 29.3118 32.4311 30.3244 31.6694 31.0863C30.9077 31.8482 29.8949 32.2677 28.8186 32.2677C26.5954 32.2677 24.7867 30.4584 24.7867 28.234C24.7867 26.0096 26.5954 24.2015 28.818 24.2015C29.4473 24.2015 30.0533 24.3491 30.6012 24.6199L46.1591 9.05725C46.6614 8.55257 46.6609 7.73586 46.1574 7.23226C45.6524 6.72704 44.8343 6.72704 44.3292 7.23226L31.4188 20.1467C31.1671 20.399 30.8356 20.5254 30.5047 20.5249C30.1743 20.5249 29.8434 20.399 29.5911 20.1467C29.086 19.642 29.086 18.8231 29.5911 18.3184L37.6668 10.2403C38.1713 9.73559 38.1713 8.91724 37.6668 8.41202C37.1628 7.90788 36.3458 7.90734 35.8412 8.40985L16.3671 27.8905C16.6958 28.4744 16.8857 29.1468 16.8857 29.8631C16.8857 32.0864 15.077 33.8957 12.8544 33.8957C11.7775 33.8957 10.7647 33.4762 10.0035 32.7143C9.24186 31.9524 8.82251 30.9398 8.82251 29.8626C8.82251 27.6387 10.6318 25.83 12.8544 25.83C13.4186 25.83 13.9557 25.9472 14.4434 26.1578L31.1833 9.4127C31.6884 8.90802 31.6884 8.08968 31.1833 7.58445C30.6793 7.08032 29.8634 7.07977 29.3584 7.58228L18.5599 18.3841C18.3076 18.637 17.9767 18.7629 17.6463 18.7629C17.3154 18.7629 16.9844 18.6364 16.7322 18.3841C16.2277 17.8794 16.2277 17.0611 16.7322 16.5558L31.077 2.20716C31.5821 1.70194 31.5821 0.883598 31.077 0.378917C30.5725 -0.126306 29.7538 -0.126306 29.2488 0.378917L11.7097 17.9244C11.9815 18.4731 12.1285 19.0798 12.1285 19.7098C12.1285 21.9337 10.3198 23.7429 8.09664 23.7429C5.87348 23.7429 4.06532 21.9337 4.06532 19.7098C4.06532 18.6326 4.48467 17.62 5.2458 16.8581C6.00747 16.0962 7.01978 15.6767 8.09719 15.6767C8.72757 15.6767 9.33355 15.8238 9.88202 16.0956L22.384 3.58934C22.8874 3.08466 22.8874 2.26686 22.3829 1.76272C21.8783 1.25804 21.0597 1.25804 20.5552 1.76272L12.0721 10.2484L3.48484 15.2078C1.84323 16.1564 0.5 18.4834 0.5 20.3795V37.5386C0.5 39.4347 1.84323 41.7616 3.48484 42.7097L18.3402 51.2892C19.9818 52.2373 22.6682 52.2373 24.3093 51.2892L39.1646 42.7097C40.8062 41.7616 42.1489 39.4347 42.1489 37.5386V35.006L45.367 31.7869C45.8721 31.2822 45.8721 30.4638 45.367 29.9586C44.863 29.4539 44.046 29.4539 43.541 29.9581Z" fill="url(#paint2_linear_32_486)"/>
<path d="M27.3723 28.2337C27.3723 29.032 28.0211 29.681 28.8191 29.681C29.2059 29.681 29.5694 29.5307 29.8423 29.2572C30.1157 28.9842 30.266 28.6206 30.266 28.2337C30.266 27.8468 30.1157 27.4832 29.8423 27.2102C29.5688 26.9373 29.2054 26.7864 28.8191 26.7864C28.0216 26.7864 27.3723 27.4355 27.3723 28.2337Z" fill="black"/>
<path d="M32.1745 38.3512C32.1745 39.1495 32.8233 39.799 33.6219 39.799C34.0081 39.799 34.3716 39.6482 34.645 39.3747C34.9179 39.1017 35.0687 38.7381 35.0687 38.3512C35.0687 37.9648 34.9184 37.6012 34.645 37.3277C34.3716 37.0548 34.0081 36.9039 33.6213 36.9039C32.8238 36.9039 32.1745 37.5529 32.1745 38.3512Z" fill="url(#paint3_linear_32_486)"/>
<path fill-rule="evenodd" clip-rule="evenodd" d="M261.395 46.9555C264.638 45.5748 269.139 43.749 273.127 42.4342C273.887 41.6459 274.296 40.398 275.45 39.6617C277.482 38.2688 282.406 37.3061 285.813 36.9717C285.07 38.2113 277.166 39.4541 277.598 40.4384C277.74 41.0701 283.282 38.4571 286.744 38.3701C285.205 40.3155 277.582 41.1216 278.046 42.0982C278.216 42.9684 284.455 40.1279 287.184 40.036C285.732 42.128 278.029 42.6927 278.488 43.7534C278.75 44.6331 284.489 42.0356 287.201 41.952C285.927 43.0039 284.208 43.4838 282.122 44.1958C280.505 44.7527 278.637 45.7094 277.059 45.5588C276.223 45.4796 275.079 44.6935 274.338 44.5877C274.115 44.5573 273.88 44.5518 273.642 44.554C269.724 45.8572 265.246 47.683 262.062 49.0371C285.832 58.7519 296.323 42.0445 298.823 35.2306C292.934 31.3016 274.986 24.3737 261.395 46.9555Z" fill="#66A03B"/>
<path fill-rule="evenodd" clip-rule="evenodd" d="M239.076 42.5975C238.077 42.8062 237.168 43.2258 236.309 43.3393C233.05 43.7728 227.806 41.003 229.742 37.0054C230.538 35.3606 234.235 35.2831 236.554 36.4186C238.715 37.4771 239.048 39.6971 240.492 40.7578C240.485 40.7655 240.48 40.775 240.473 40.7833C245.445 42.5327 251.884 45.2985 256.037 47.1365C242.432 24.3344 224.405 31.2916 218.5 35.2311C220.995 42.03 231.447 58.6804 255.11 49.0985C250.761 47.1786 243.971 44.2705 239.076 42.5975Z" fill="#AFC643"/>
<path fill-rule="evenodd" clip-rule="evenodd" d="M257.568 15.9434C259.341 16.2479 261.894 20.2206 261.894 24.4469V33.0367C261.894 35.0353 260.051 36.0943 260.051 37.232C260.051 40.2071 259.917 42.5284 259.917 45.7111C259.917 46.0787 259.923 46.4474 259.931 46.8167C278.696 23.2389 265.02 5.29307 258.818 1.29376e-08C252.623 5.28145 239.006 23.1509 257.568 46.6434V15.9434Z" fill="#7DAF3C"/>
<path d="M322.753 37.4187L320.447 30.9514H312.293L310.016 37.4187H306.985L314.926 15.5931H317.914L325.813 37.4187H322.753ZM319.636 28.3046L317.445 21.8966C317.378 21.6784 317.276 21.3518 317.138 20.9156C317.001 20.4793 316.863 20.0287 316.726 19.5625C316.588 19.0969 316.476 18.71 316.391 18.4027C316.296 18.8091 316.187 19.2376 316.064 19.6888C315.941 20.14 315.82 20.5612 315.701 20.9527C315.582 21.3441 315.485 21.6591 315.409 21.8966L313.189 28.3046H319.636Z" fill="black"/>
<path d="M334.422 20.7374C335.788 20.7374 336.96 21.0424 337.937 21.6519C338.914 22.2614 339.663 23.1218 340.185 24.2312C340.707 25.3412 340.968 26.6499 340.968 28.1563V29.8514H330.323C330.352 31.6058 330.784 32.9511 331.618 33.8878C332.452 34.8245 333.625 35.2929 335.133 35.2929C336.129 35.2929 337.016 35.1938 337.794 34.9956C338.571 34.7974 339.378 34.5051 340.213 34.1187V36.6315C339.426 37.0085 338.636 37.2831 337.844 37.457C337.051 37.6302 336.105 37.7172 335.005 37.7172C333.487 37.7172 332.156 37.3999 331.013 36.7655C329.87 36.1311 328.981 35.1921 328.345 33.9482C327.71 32.7042 327.392 31.1707 327.392 29.3466C327.392 27.5224 327.681 25.9989 328.26 24.715C328.839 23.4318 329.655 22.448 330.708 21.7637C331.761 21.0795 332.999 20.7374 334.422 20.7374ZM334.408 23.0564C333.25 23.0564 332.32 23.4506 331.619 24.2384C330.916 25.0262 330.504 26.1539 330.381 27.621H338.094C338.084 26.7191 337.947 25.9258 337.681 25.2421C337.415 24.5584 337.014 24.023 336.478 23.6366C335.942 23.2502 335.252 23.0564 334.408 23.0564Z" fill="black"/>
<path d="M351.157 37.716C349.714 37.716 348.453 37.4137 347.371 36.8092C346.29 36.2046 345.453 35.2801 344.86 34.0367C344.267 32.7927 343.97 31.2194 343.97 29.316C343.97 27.4127 344.288 25.7109 344.924 24.447C345.559 23.1831 346.439 22.2492 347.564 21.6447C348.688 21.0401 349.976 20.7378 351.427 20.7378C352.281 20.7378 353.08 20.827 353.825 21.0052C354.569 21.1835 355.193 21.4066 355.696 21.674L354.842 24.0972C354.311 23.879 353.739 23.6858 353.128 23.5175C352.516 23.3492 351.934 23.2645 351.384 23.2645C350.379 23.2645 349.546 23.4948 348.887 23.956C348.228 24.4166 347.732 25.0931 347.4 25.9855C347.068 26.8774 346.902 27.978 346.902 29.2861C346.902 30.5943 347.066 31.6279 347.393 32.5048C347.72 33.3823 348.204 34.0489 348.845 34.5045C349.485 34.9607 350.284 35.1882 351.242 35.1882C352.087 35.1882 352.846 35.0891 353.519 34.8909C354.193 34.6927 354.814 34.4403 355.383 34.1325V36.7638C354.833 37.081 354.226 37.319 353.562 37.4774C352.898 37.6357 352.096 37.716 351.157 37.716Z" fill="black"/>
<path d="M372.774 29.1971C372.774 30.5451 372.605 31.747 372.268 32.8022C371.931 33.8579 371.443 34.7498 370.803 35.4783C370.162 36.2069 369.391 36.7622 368.491 37.1436C367.589 37.5251 366.57 37.716 365.431 37.716C364.369 37.716 363.394 37.5251 362.507 37.1436C361.62 36.7622 360.853 36.2069 360.208 35.4783C359.563 34.7498 359.065 33.8579 358.714 32.8022C358.363 31.7465 358.187 30.5451 358.187 29.1971C358.187 27.4034 358.481 25.8743 359.069 24.6104C359.657 23.3465 360.5 22.3855 361.595 21.7261C362.691 21.0667 363.998 20.7374 365.516 20.7374C367.034 20.7374 368.224 21.0695 369.315 21.7333C370.406 22.3976 371.255 23.3593 371.862 24.6176C372.469 25.8765 372.774 27.4034 372.774 29.1971ZM361.119 29.1971C361.119 30.456 361.273 31.5389 361.581 32.4457C361.889 33.3525 362.364 34.0489 363.004 34.5344C363.645 35.02 364.472 35.263 365.487 35.263C366.502 35.263 367.304 35.0205 367.949 34.5344C368.594 34.0489 369.068 33.3525 369.372 32.4457C369.675 31.5389 369.827 30.456 369.827 29.1971C369.827 27.9382 369.675 26.878 369.372 25.9856C369.068 25.0937 368.597 24.4095 367.956 23.9339C367.316 23.4584 366.483 23.2203 365.459 23.2203C363.96 23.2203 362.862 23.7435 362.165 24.7887C361.467 25.8344 361.119 27.3037 361.119 29.1971Z" fill="black"/>
<path d="M382.151 37.7158C380.235 37.7158 378.705 37.0072 377.561 35.5899C376.418 34.1727 375.847 32.0717 375.847 29.286C375.847 26.5002 376.427 24.3428 377.59 22.9006C378.752 21.4585 380.296 20.7377 382.222 20.7377C383.028 20.7377 383.735 20.8517 384.342 21.0798C384.949 21.3079 385.473 21.6101 385.914 21.9866C386.355 22.3636 386.723 22.7893 387.018 23.2654H387.188C387.141 22.9582 387.093 22.5275 387.046 21.9722C386.998 21.4175 386.974 20.9314 386.974 20.5151V14.2859H389.835V37.4196H387.572L387.103 35.1448H386.974C386.69 35.6204 386.327 36.0544 385.886 36.4458C385.445 36.8372 384.918 37.1472 384.306 37.3748C383.695 37.6029 382.976 37.7169 382.151 37.7169L382.151 37.7158ZM382.82 35.2771C384.367 35.2771 385.46 34.8116 386.101 33.8798C386.741 32.9481 387.066 31.5657 387.076 29.7316V29.2705C387.076 27.3179 386.769 25.8187 386.158 24.7729C385.546 23.7272 384.423 23.2045 382.792 23.2045C381.464 23.2045 380.463 23.7471 379.79 24.8327C379.116 25.9183 378.779 27.4225 378.779 29.3452C378.779 31.2679 379.116 32.7128 379.79 33.7387C380.463 34.7645 381.473 35.2771 382.82 35.2771Z" fill="black"/>
<path d="M400.722 20.7523C402.658 20.7523 404.104 21.2007 405.063 22.0975C406.021 22.9949 406.5 24.4094 406.5 26.3421V37.4182H404.451L403.896 35.0393H403.782C403.346 35.6339 402.89 36.1299 402.416 36.5263C401.941 36.9227 401.394 37.22 400.772 37.4182C400.151 37.6164 399.394 37.7155 398.503 37.7155C397.554 37.7155 396.71 37.5372 395.97 37.1801C395.23 36.823 394.648 36.2855 394.227 35.5669C393.804 34.8483 393.593 33.9343 393.593 32.8237C393.593 31.1585 394.205 29.8946 395.429 29.0326C396.653 28.1706 398.508 27.6995 400.993 27.6204L403.697 27.5013V26.5796C403.697 25.3007 403.424 24.3994 402.879 23.8735C402.333 23.3481 401.572 23.0857 400.595 23.0857C399.788 23.0857 399.015 23.207 398.275 23.45C397.535 23.693 396.823 23.9831 396.14 24.3197L395.23 22.149C395.97 21.7526 396.811 21.4205 397.756 21.1531C398.7 20.8857 399.688 20.7523 400.722 20.7523ZM403.668 29.4644L401.476 29.5685C399.664 29.6377 398.39 29.9527 397.655 30.5124C396.92 31.0727 396.552 31.8533 396.552 32.8542C396.552 33.7267 396.803 34.3656 397.306 34.7719C397.809 35.1782 398.474 35.3814 399.299 35.3814C400.57 35.3814 401.616 35.0072 402.436 34.2587C403.257 33.5102 403.667 32.403 403.667 30.9359L403.668 29.4644Z" fill="black"/>
<defs>
<linearGradient id="paint0_linear_32_486" x1="2734.44" y1="-298.227" x2="2585.19" y2="866.845" gradientUnits="userSpaceOnUse">
<stop stop-color="#3EA6DE"/>
<stop offset="0.99" stop-color="#273578"/>
</linearGradient>
<linearGradient id="paint1_linear_32_486" x1="3112.66" y1="-346.594" x2="2963.46" y2="818.285" gradientUnits="userSpaceOnUse">
<stop stop-color="#3EA6DE"/>
<stop offset="0.99" stop-color="#273578"/>
</linearGradient>
<linearGradient id="paint2_linear_32_486" x1="325.72" y1="12.9026" x2="318.339" y2="77.9832" gradientUnits="userSpaceOnUse">
<stop stop-color="#3EA6DE"/>
<stop offset="0.99" stop-color="#273578"/>
</linearGradient>
<linearGradient id="paint3_linear_32_486" x1="2251.27" y1="-236.267" x2="2102.07" y2="928.611" gradientUnits="userSpaceOnUse">
<stop stop-color="#3EA6DE"/>
<stop offset="0.99" stop-color="#273578"/>
</linearGradient>
</defs>
</svg>
