<svg width="207" height="28" viewBox="0 0 207 28" fill="none" xmlns="http://www.w3.org/2000/svg">
<path d="M34.0287 12.8574C33.7549 12.3204 33.3746 11.9146 32.8878 11.641C32.401 11.3674 31.8381 11.2302 31.1991 11.2302C30.4994 11.2302 29.8756 11.3905 29.328 11.7106C28.7803 12.031 28.3519 12.4855 28.0426 13.0744C27.7331 13.6633 27.5785 14.3451 27.5785 15.12C27.5785 15.8949 27.7331 16.5793 28.0426 17.1735C28.3519 17.7678 28.7803 18.2248 29.328 18.5449C29.8756 18.8653 30.4994 19.0253 31.1991 19.0253C32.1423 19.0253 32.908 18.7568 33.4963 18.2195C34.0843 17.6824 34.4444 16.954 34.5764 16.0343H30.6058V14.6241H36.4323V16.0033C36.3206 16.8402 36.0293 17.61 35.5577 18.3124C35.0861 19.0152 34.4724 19.5756 33.717 19.994C32.9613 20.4125 32.1221 20.6215 31.1994 20.6215C30.2053 20.6215 29.2978 20.3865 28.4763 19.9165C27.6549 19.4466 27.0032 18.7929 26.5216 17.956C26.0398 17.1192 25.7992 16.1738 25.7992 15.12C25.7992 14.0662 26.0401 13.1209 26.5216 12.284C27.0032 11.4472 27.6573 10.7937 28.4841 10.3235C29.3106 9.85348 30.2158 9.6182 31.1997 9.6182C32.3254 9.6182 33.327 9.89997 34.2041 10.4629C35.0812 11.0262 35.7176 11.8242 36.1131 12.8571L34.0287 12.8574Z" fill="#707070"/>
<path d="M42.8673 20.5285L40.4333 16.2203H39.1098V20.5285H37.3755V9.75796H41.0266C41.8378 9.75796 42.5249 9.90279 43.088 10.1919C43.6509 10.4813 44.0716 10.8687 44.3507 11.3542C44.6295 11.8399 44.7689 12.3823 44.7689 12.9814C44.7689 13.6841 44.5687 14.3218 44.1682 14.8952C43.7674 15.4686 43.1514 15.8585 42.3199 16.0651L44.9365 20.5283L42.8673 20.5285ZM39.1098 14.8101H41.0266C41.6755 14.8101 42.165 14.6449 42.4947 14.3141C42.8242 13.9836 42.9893 13.5393 42.9893 12.9814C42.9893 12.4235 42.8269 11.987 42.5025 11.6717C42.1778 11.3567 41.686 11.1992 41.0269 11.1992H39.1101L39.1098 14.8101Z" fill="#707070"/>
<path d="M52.6032 18.3279H48.1763L47.4157 20.5285H45.6053L49.3933 9.74246H51.4014L55.1894 20.5285H53.3638L52.6032 18.3279ZM52.1164 16.8867L50.3974 11.8811L48.6631 16.8867H52.1164Z" fill="#707070"/>
<path d="M65.1842 9.75796L61.2136 20.5285H59.2055L55.2198 9.75796H57.0758L60.2096 18.7154L63.3586 9.75796H65.1842Z" fill="#707070"/>
<path d="M67.6027 9.75796V20.5285H65.8684V9.75796H67.6027Z" fill="#707070"/>
<path d="M75.9542 9.75796V11.1992H73.1399V20.5285H71.4056V11.1992H68.576V9.75796H75.9542Z" fill="#707070"/>
<path d="M83.3172 18.3279H78.8903L78.1297 20.5285H76.3193L80.1073 9.74246H82.1154L85.9034 20.5285H84.0778L83.3172 18.3279ZM82.8304 16.8867L81.1114 11.8811L79.3771 16.8867H82.8304Z" fill="#707070"/>
<path d="M93.1977 10.4165C94.0444 10.8557 94.6986 11.4858 95.1602 12.3071C95.6216 13.1285 95.8522 14.0868 95.8522 15.182C95.8522 16.2772 95.6216 17.2276 95.1602 18.0335C94.6986 18.8393 94.0444 19.4567 93.1977 19.8853C92.3508 20.3141 91.3645 20.5285 90.2387 20.5285H86.7854V9.75796H90.2387C91.3645 9.75796 92.3508 9.97718 93.1977 10.4165ZM93.0835 18.0645C93.7426 17.3826 94.0723 16.4218 94.0723 15.182C94.0723 13.9422 93.7426 12.9557 93.0835 12.253C92.4241 11.5506 91.4759 11.1992 90.2387 11.1992H88.5197V19.0873H90.2387C91.4759 19.0873 92.4241 18.7464 93.0835 18.0645Z" fill="#707070"/>
<path d="M3.13549 10.734C3.13549 11.1482 3.46657 11.4855 3.87317 11.4855C4.28004 11.4855 4.61085 11.1482 4.61085 10.7337C4.61085 10.5331 4.53423 10.3446 4.39483 10.2026C4.25542 10.0606 4.0701 9.98253 3.87289 9.98253C3.4663 9.98253 3.13549 10.3195 3.13549 10.734Z" fill="url(#paint0_linear_39_1159)"/>
<path d="M5.56151 16.0056C5.56151 16.2065 5.6384 16.3953 5.77753 16.5373C5.91693 16.6793 6.10197 16.7574 6.29919 16.7574C6.70578 16.7574 7.03687 16.4204 7.03687 16.0059C7.03687 15.5914 6.70606 15.2544 6.29919 15.2541C5.89259 15.2541 5.56178 15.5914 5.56151 16.0056Z" fill="url(#paint1_linear_39_1159)"/>
<path d="M21.9445 16.0551L18.6763 19.3844C18.8492 19.695 18.9426 20.0466 18.9424 20.4129C18.9424 20.9722 18.7288 21.4983 18.3405 21.8939C17.9522 22.2895 17.436 22.5073 16.8873 22.5073C15.7535 22.5073 14.8316 21.5679 14.8316 20.4132C14.8316 19.2585 15.7538 18.3194 16.887 18.3194C17.1691 18.3194 17.4421 18.3777 17.6938 18.4873L22.4051 13.6877C22.662 13.4253 22.662 13.001 22.4048 12.7389C22.1478 12.4772 21.7316 12.4769 21.474 12.7381L18.2442 16.0283C18.1156 16.1593 17.9469 16.225 17.7782 16.225C17.6095 16.225 17.441 16.1593 17.3124 16.0283C17.0552 15.766 17.0552 15.3411 17.3124 15.079L22.3899 9.90633C22.6474 9.64429 22.6474 9.21938 22.3899 8.95734C22.1326 8.69501 21.7152 8.69501 21.458 8.95734L16.2799 14.2323C16.4187 14.5175 16.4939 14.8328 16.4937 15.1602C16.4937 15.7195 16.2801 16.2453 15.8918 16.6409C15.5035 17.0365 14.9871 17.2543 14.4383 17.2543C13.3048 17.2543 12.3826 16.3149 12.3826 15.1599C12.3826 14.0049 13.3048 13.0661 14.438 13.0661C14.7589 13.0661 15.0678 13.1427 15.3472 13.2833L23.2794 5.20278C23.5355 4.94073 23.5352 4.51667 23.2786 4.25519C23.021 3.99287 22.6039 3.99287 22.3464 4.25519L15.764 10.9607C15.6357 11.0917 15.4667 11.1574 15.2979 11.1571C15.1295 11.1571 14.9608 11.0917 14.8322 10.9607C14.5746 10.6987 14.5746 10.2735 14.8322 10.0114L18.9496 5.81703C19.2068 5.55499 19.2068 5.13008 18.9496 4.86776C18.6926 4.60599 18.276 4.60571 18.0188 4.86663L8.08987 14.9815C8.25748 15.2847 8.35429 15.6338 8.35429 16.0058C8.35429 17.1602 7.43212 18.0996 6.29891 18.0996C5.74987 18.0996 5.23346 17.8818 4.8454 17.4862C4.45706 17.0906 4.24325 16.5648 4.24325 16.0055C4.24325 14.8508 5.1657 13.9117 6.29891 13.9117C6.58657 13.9117 6.8604 13.9725 7.10906 14.0819L15.644 5.38734C15.9015 5.12529 15.9015 4.70039 15.644 4.43806C15.387 4.1763 14.971 4.17602 14.7135 4.43693L9.20786 10.0455C9.07925 10.1768 8.91052 10.2422 8.74208 10.2422C8.57335 10.2422 8.40463 10.1765 8.27601 10.0455C8.01878 9.78348 8.01878 9.35858 8.27601 9.09625L15.5898 1.64602C15.8473 1.38369 15.8473 0.958789 15.5898 0.696745C15.3325 0.434418 14.9151 0.434418 14.6576 0.696745L5.71529 9.80687C5.85387 10.0917 5.92882 10.4068 5.92882 10.7339C5.92882 11.8886 5.00666 12.828 3.87317 12.828C2.73968 12.828 1.81779 11.8886 1.81779 10.7339C1.81779 10.1746 2.03159 9.6488 2.41966 9.25319C2.808 8.85759 3.32412 8.63979 3.87344 8.63979C4.19485 8.63979 4.5038 8.71614 4.78344 8.85731L11.1576 2.36368C11.4143 2.10164 11.4143 1.67702 11.157 1.41525C10.8998 1.15321 10.4824 1.15321 10.2252 1.41525L5.90006 5.82126L1.52183 8.39634C0.68485 8.88887 0 10.0971 0 11.0816V19.9911C0 20.9756 0.68485 22.1838 1.52183 22.6761L9.09584 27.1308C9.93282 27.6231 11.3025 27.6231 12.1392 27.1308L19.7132 22.6761C20.5502 22.1838 21.2348 20.9756 21.2348 19.9911V18.6761L22.8756 17.0046C23.1331 16.7426 23.1331 16.3177 22.8756 16.0554C22.6186 15.7933 22.202 15.7933 21.9445 16.0551Z" fill="url(#paint2_linear_39_1159)"/>
<path d="M13.7009 15.1597C13.7009 15.5742 14.0317 15.9112 14.4386 15.9112C14.6358 15.9112 14.8211 15.8332 14.9602 15.6912C15.0996 15.5494 15.1762 15.3606 15.1762 15.1597C15.1762 14.9588 15.0996 14.7701 14.9602 14.6283C14.8208 14.4866 14.6355 14.4083 14.4386 14.4083C14.032 14.4083 13.7009 14.7453 13.7009 15.1597Z" fill="#707070"/>
<path d="M16.1493 20.413C16.1493 20.8275 16.4801 21.1648 16.8873 21.1648C17.0842 21.1648 17.2695 21.0864 17.4089 20.9444C17.548 20.8027 17.6249 20.6139 17.6249 20.413C17.6249 20.2124 17.5483 20.0236 17.4089 19.8816C17.2695 19.7399 17.0842 19.6615 16.887 19.6615C16.4804 19.6615 16.1493 19.9985 16.1493 20.413Z" fill="url(#paint3_linear_39_1159)"/>
<path fill-rule="evenodd" clip-rule="evenodd" d="M133.018 24.8806C134.671 24.1637 136.966 23.2157 139 22.533C139.387 22.1237 139.595 21.4758 140.184 21.0935C141.22 20.3702 143.73 19.8704 145.468 19.6968C145.089 20.3404 141.059 20.9857 141.279 21.4968C141.351 21.8247 144.177 20.468 145.942 20.4229C145.158 21.433 141.271 21.8515 141.507 22.3585C141.594 22.8104 144.775 21.3355 146.167 21.2878C145.426 22.3741 141.499 22.6673 141.733 23.218C141.866 23.6748 144.792 22.3261 146.175 22.2827C145.525 22.8288 144.649 23.078 143.586 23.4477C142.761 23.7369 141.809 24.2336 141.004 24.1554C140.578 24.1143 139.995 23.7061 139.617 23.6512C139.503 23.6354 139.384 23.6325 139.262 23.6337C137.265 24.3103 134.982 25.2583 133.358 25.9614C145.477 31.0056 150.826 22.3307 152.101 18.7927C149.098 16.7527 139.947 13.1555 133.018 24.8806Z" fill="#66A03B"/>
<path fill-rule="evenodd" clip-rule="evenodd" d="M121.638 22.6178C121.129 22.7262 120.666 22.944 120.228 23.003C118.566 23.228 115.892 21.7899 116.88 19.7143C117.285 18.8602 119.17 18.82 120.353 19.4096C121.455 19.9592 121.624 21.1118 122.36 21.6626C122.357 21.6666 122.355 21.6715 122.351 21.6758C124.886 22.5842 128.169 24.0203 130.286 24.9746C123.35 13.1351 114.158 16.7475 111.148 18.793C112.42 22.3232 117.749 30.9685 129.814 25.9933C127.596 24.9964 124.134 23.4865 121.638 22.6178Z" fill="#AFC643"/>
<path fill-rule="evenodd" clip-rule="evenodd" d="M131.067 8.77828C131.97 8.93638 133.272 10.9991 133.272 13.1935V17.6536C133.272 18.6913 132.333 19.2412 132.333 19.8319C132.333 21.3767 132.264 22.5819 132.264 24.2345C132.264 24.4254 132.267 24.6168 132.271 24.8085C141.839 12.5663 134.866 3.24831 131.704 0.5C128.545 3.24228 121.603 12.5206 131.067 24.7185V8.77828Z" fill="#7DAF3C"/>
<path d="M164.301 19.9288L163.126 16.5708H158.968L157.808 19.9288H156.262L160.311 8.5964H161.834L165.861 19.9288H164.301ZM162.712 15.1965L161.595 11.8693C161.561 11.7561 161.509 11.5865 161.439 11.3599C161.369 11.1334 161.299 10.8994 161.228 10.6574C161.158 10.4157 161.101 10.2147 161.058 10.0552C161.009 10.2662 160.954 10.4887 160.891 10.723C160.828 10.9572 160.767 11.176 160.706 11.3792C160.645 11.5824 160.596 11.746 160.557 11.8693L159.425 15.1965H162.712Z" fill="#707070"/>
<path d="M170.251 11.2674C170.947 11.2674 171.545 11.4258 172.043 11.7423C172.541 12.0588 172.923 12.5055 173.189 13.0815C173.455 13.6579 173.588 14.3374 173.588 15.1195V15.9997H168.161C168.176 16.9106 168.396 17.6091 168.821 18.0955C169.247 18.5819 169.844 18.8251 170.613 18.8251C171.121 18.8251 171.574 18.7736 171.97 18.6707C172.366 18.5678 172.778 18.416 173.203 18.2154V19.5201C172.802 19.7159 172.399 19.8584 171.996 19.9487C171.592 20.0387 171.109 20.0838 170.548 20.0838C169.774 20.0838 169.096 19.9191 168.513 19.5897C167.93 19.2603 167.477 18.7727 167.153 18.1268C166.829 17.4809 166.667 16.6847 166.667 15.7376C166.667 14.7904 166.814 13.9993 167.109 13.3327C167.404 12.6664 167.82 12.1556 168.357 11.8003C168.894 11.4451 169.525 11.2674 170.251 11.2674ZM170.244 12.4715C169.653 12.4715 169.179 12.6762 168.822 13.0853C168.463 13.4943 168.253 14.0798 168.19 14.8416H172.123C172.118 14.3733 172.048 13.9614 171.912 13.6064C171.777 13.2514 171.573 12.9734 171.299 12.7728C171.026 12.5722 170.674 12.4715 170.244 12.4715Z" fill="#707070"/>
<path d="M178.783 20.0832C178.048 20.0832 177.405 19.9262 176.853 19.6124C176.302 19.2985 175.875 18.8184 175.573 18.1728C175.27 17.5269 175.119 16.71 175.119 15.7217C175.119 14.7335 175.281 13.8498 175.605 13.1936C175.929 12.5373 176.378 12.0524 176.951 11.7385C177.524 11.4246 178.181 11.2677 178.921 11.2677C179.356 11.2677 179.764 11.3139 180.144 11.4065C180.523 11.4991 180.841 11.6149 181.098 11.7537L180.662 13.0119C180.391 12.8987 180.1 12.7983 179.788 12.711C179.476 12.6236 179.18 12.5796 178.899 12.5796C178.386 12.5796 177.962 12.6992 177.626 12.9386C177.29 13.1778 177.037 13.529 176.868 13.9924C176.698 14.4555 176.614 15.0269 176.614 15.7062C176.614 16.3854 176.697 16.9221 176.864 17.3774C177.031 17.833 177.278 18.1791 177.604 18.4157C177.931 18.6526 178.338 18.7707 178.827 18.7707C179.257 18.7707 179.644 18.7192 179.988 18.6163C180.331 18.5134 180.648 18.3823 180.938 18.2225V19.5888C180.657 19.7535 180.348 19.8771 180.009 19.9593C179.671 20.0415 179.262 20.0832 178.783 20.0832Z" fill="#707070"/>
<path d="M189.805 15.6599C189.805 16.3599 189.719 16.9839 189.547 17.5318C189.375 18.08 189.126 18.5431 188.8 18.9214C188.473 19.2996 188.08 19.588 187.621 19.786C187.161 19.9841 186.641 20.0832 186.061 20.0832C185.519 20.0832 185.022 19.9841 184.57 19.786C184.118 19.588 183.727 19.2996 183.398 18.9214C183.069 18.5431 182.815 18.08 182.636 17.5318C182.457 16.9837 182.368 16.3599 182.368 15.6599C182.368 14.7286 182.518 13.9347 182.817 13.2784C183.117 12.6222 183.547 12.1232 184.105 11.7808C184.664 11.4384 185.33 11.2674 186.104 11.2674C186.878 11.2674 187.485 11.4399 188.041 11.7845C188.597 12.1295 189.031 12.6288 189.34 13.2822C189.649 13.9358 189.805 14.7286 189.805 15.6599ZM183.862 15.6599C183.862 16.3136 183.941 16.8759 184.098 17.3467C184.255 17.8175 184.497 18.1792 184.824 18.4313C185.15 18.6833 185.572 18.8095 186.09 18.8095C186.607 18.8095 187.016 18.6836 187.345 18.4313C187.674 18.1792 187.915 17.8175 188.07 17.3467C188.225 16.8759 188.302 16.3136 188.302 15.6599C188.302 15.0063 188.225 14.4558 188.07 13.9924C187.915 13.5294 187.675 13.1741 187.348 12.9272C187.022 12.6802 186.598 12.5566 186.075 12.5566C185.311 12.5566 184.751 12.8283 184.396 13.371C184.04 13.914 183.862 14.6769 183.862 15.6599Z" fill="#707070"/>
<path d="M194.586 20.0831C193.609 20.0831 192.829 19.7152 192.246 18.9793C191.663 18.2434 191.371 17.1525 191.371 15.7061C191.371 14.2596 191.667 13.1394 192.26 12.3906C192.853 11.6418 193.64 11.2676 194.622 11.2676C195.033 11.2676 195.393 11.3268 195.703 11.4452C196.012 11.5636 196.28 11.7206 196.504 11.9161C196.729 12.1118 196.917 12.3329 197.067 12.5801H197.154C197.13 12.4205 197.105 12.1969 197.081 11.9086C197.057 11.6206 197.045 11.3682 197.045 11.152V7.91762H198.503V19.9293H197.35L197.11 18.7482H197.045C196.9 18.9951 196.715 19.2205 196.49 19.4237C196.265 19.6269 195.996 19.7879 195.685 19.906C195.373 20.0245 195.006 20.0837 194.585 20.0837L194.586 20.0831ZM194.927 18.8169C195.715 18.8169 196.273 18.5751 196.599 18.0914C196.926 17.6076 197.092 16.8898 197.096 15.9375V15.698C197.096 14.6842 196.94 13.9058 196.628 13.3628C196.317 12.8198 195.744 12.5484 194.913 12.5484C194.235 12.5484 193.725 12.8302 193.382 13.3938C193.038 13.9575 192.867 14.7385 192.867 15.7368C192.867 16.7352 193.038 17.4854 193.382 18.0181C193.725 18.5507 194.24 18.8169 194.927 18.8169Z" fill="#707070"/>
<path d="M204.054 11.2752C205.041 11.2752 205.779 11.508 206.267 11.9737C206.756 12.4396 207 13.1741 207 14.1775V19.9286H205.955L205.672 18.6934H205.614C205.392 19.0021 205.16 19.2597 204.918 19.4655C204.676 19.6713 204.397 19.8257 204.08 19.9286C203.763 20.0315 203.377 20.0829 202.923 20.0829C202.439 20.0829 202.008 19.9904 201.631 19.805C201.254 19.6195 200.957 19.3404 200.742 18.9673C200.527 18.5942 200.419 18.1196 200.419 17.543C200.419 16.6784 200.731 16.0221 201.356 15.5745C201.98 15.127 202.925 14.8824 204.192 14.8413L205.571 14.7795V14.3009C205.571 13.6368 205.432 13.1689 205.154 12.8958C204.876 12.623 204.487 12.4868 203.989 12.4868C203.578 12.4868 203.184 12.5497 202.807 12.6759C202.429 12.8021 202.066 12.9527 201.718 13.1275L201.254 12.0004C201.631 11.7946 202.06 11.6221 202.542 11.4833C203.023 11.3444 203.527 11.2752 204.054 11.2752ZM205.556 15.7988L204.439 15.8528C203.515 15.8887 202.865 16.0523 202.49 16.3429C202.115 16.6338 201.928 17.0391 201.928 17.5588C201.928 18.0118 202.056 18.3436 202.313 18.5545C202.569 18.7655 202.908 18.871 203.328 18.871C203.976 18.871 204.51 18.6767 204.928 18.2881C205.347 17.8994 205.556 17.3245 205.556 16.5628L205.556 15.7988Z" fill="#707070"/>
<defs>
<linearGradient id="paint0_linear_39_1159" x1="1393.9" y1="-154.348" x2="1315.03" y2="450.228" gradientUnits="userSpaceOnUse">
<stop stop-color="#3EA6DE"/>
<stop offset="0.99" stop-color="#273578"/>
</linearGradient>
<linearGradient id="paint1_linear_39_1159" x1="1586.74" y1="-179.461" x2="1507.9" y2="425.014" gradientUnits="userSpaceOnUse">
<stop stop-color="#3EA6DE"/>
<stop offset="0.99" stop-color="#273578"/>
</linearGradient>
<linearGradient id="paint2_linear_39_1159" x1="165.814" y1="7.19939" x2="161.913" y2="40.9751" gradientUnits="userSpaceOnUse">
<stop stop-color="#3EA6DE"/>
<stop offset="0.99" stop-color="#273578"/>
</linearGradient>
<linearGradient id="paint3_linear_39_1159" x1="1147.56" y1="-122.177" x2="1068.71" y2="482.299" gradientUnits="userSpaceOnUse">
<stop stop-color="#3EA6DE"/>
<stop offset="0.99" stop-color="#273578"/>
</linearGradient>
</defs>
</svg>
