<svg width="21" height="20" viewBox="0 0 21 20" fill="none" xmlns="http://www.w3.org/2000/svg">
<path d="M0.5 2.77778C0.5 12.2893 8.21066 20 17.7222 20C18.1513 20 18.5768 19.9843 18.9981 19.9534C19.4816 19.918 19.7232 19.9003 19.9433 19.7737C20.1256 19.6688 20.2983 19.4828 20.3897 19.2933C20.5 19.0647 20.5 18.7979 20.5 18.2644V15.1341C20.5 14.6854 20.5 14.4611 20.4261 14.2689C20.361 14.099 20.255 13.9478 20.1177 13.8284C19.9622 13.6933 19.7513 13.6167 19.3298 13.4633L15.7667 12.1677C15.2761 11.9893 15.0308 11.9001 14.7981 11.9152C14.5929 11.9286 14.3954 11.9987 14.2277 12.1176C14.0374 12.2523 13.9032 12.4761 13.6347 12.9238L12.7222 14.4444C9.77789 13.111 7.391 10.721 6.05556 7.77778L7.57626 6.86536C8.02383 6.59681 8.24762 6.46253 8.38244 6.27229C8.50133 6.10453 8.57145 5.90708 8.58478 5.70189C8.59989 5.46919 8.51067 5.22392 8.33233 4.73339L7.03666 1.17023C6.88333 0.748622 6.80668 0.537811 6.67158 0.382333C6.55223 0.244989 6.40099 0.139056 6.23113 0.0738335C6.03884 1.32455e-07 5.81453 0 5.36591 0H2.23557C1.70209 0 1.43534 8.27842e-08 1.20664 0.110278C1.01722 0.201622 0.831267 0.374456 0.726333 0.5567C0.599645 0.776744 0.581944 1.01847 0.546544 1.50192C0.5157 1.92318 0.5 2.34864 0.5 2.77778Z" fill="black"/>
</svg>
