<svg width="24" height="16" viewBox="0 0 24 16" fill="none" xmlns="http://www.w3.org/2000/svg">
<path d="M23.02 2.49936C22.889 2.01538 22.6323 1.57402 22.2756 1.21945C21.9188 0.864885 21.4744 0.609542 20.9869 0.478981C19.1926 9.71897e-08 12 0 12 0C12 0 4.80737 -9.71897e-08 3.01306 0.476433C2.52539 0.606571 2.0808 0.861772 1.72394 1.21641C1.36709 1.57104 1.11052 2.01263 0.980022 2.49682C0.5 4.28025 0.5 8 0.5 8C0.5 8 0.5 11.7197 0.980022 13.5006C1.24442 14.4841 2.02478 15.2586 3.01306 15.521C4.80737 16 12 16 12 16C12 16 19.1926 16 20.9869 15.521C21.9778 15.2586 22.7556 14.4841 23.02 13.5006C23.5 11.7197 23.5 8 23.5 8C23.5 8 23.5 4.28025 23.02 2.49936ZM9.7154 11.414V4.58599L15.6708 7.97452L9.7154 11.414Z" fill="black"/>
</svg>
